<?xml version="1.0" encoding="UTF-8" standalone="no"?>
<!DOCTYPE svg PUBLIC "-//W3C//DTD SVG 1.1//EN"
 "http://www.w3.org/Graphics/SVG/1.1/DTD/svg11.dtd">
<!-- Generated by graphviz version 12.2.1 (20241206.2353)
 -->
<!-- Title: G Pages: 1 -->
<svg width="1191pt" height="839pt"
 viewBox="0.00 0.00 1191.06 839.39" xmlns="http://www.w3.org/2000/svg" xmlns:xlink="http://www.w3.org/1999/xlink">
<g id="graph0" class="graph" transform="scale(1 1) rotate(0) translate(4 835.39)">
<title>G</title><style>.edge>path:hover{stroke-width:8}</style>
<polygon fill="white" stroke="none" points="-4,4 -4,-835.39 1187.06,-835.39 1187.06,4 -4,4"/>
<!-- be_task_ca_app -->
<g id="node1" class="node">
<title>be_task_ca_app</title><style>.edge>path:hover{stroke-width:8}</style>
<ellipse fill="#883a3a" stroke="black" cx="518.09" cy="-18" rx="50.29" ry="18"/>
<text text-anchor="middle" x="518.09" y="-14.12" font-family="Helvetica,sans-Serif" font-size="10.00" fill="#ffffff">be_task_ca.app</text>
</g>
<!-- be_task_ca_commands -->
<g id="node2" class="node">
<title>be_task_ca_commands</title><style>.edge>path:hover{stroke-width:8}</style>
<ellipse fill="#9d4343" stroke="black" cx="864.09" cy="-328.61" rx="48.97" ry="21.57"/>
<text text-anchor="middle" x="864.09" y="-330.36" font-family="Helvetica,sans-Serif" font-size="10.00" fill="#ffffff">be_task_ca.</text>
<text text-anchor="middle" x="864.09" y="-319.11" font-family="Helvetica,sans-Serif" font-size="10.00" fill="#ffffff">commands</text>
</g>
<!-- be_task_ca_common -->
<g id="node3" class="node">
<title>be_task_ca_common</title><style>.edge>path:hover{stroke-width:8}</style>
<ellipse fill="#c04040" stroke="black" cx="134.09" cy="-328.61" rx="48.97" ry="21.57"/>
<text text-anchor="middle" x="134.09" y="-330.36" font-family="Helvetica,sans-Serif" font-size="10.00" fill="#ffffff">be_task_ca.</text>
<text text-anchor="middle" x="134.09" y="-319.11" font-family="Helvetica,sans-Serif" font-size="10.00" fill="#ffffff">common</text>
</g>
<!-- be_task_ca_item_api -->
<g id="node7" class="node">
<title>be_task_ca_item_api</title><style>.edge>path:hover{stroke-width:8}</style>
<ellipse fill="#913030" stroke="black" cx="288.09" cy="-138.52" rx="48.97" ry="29.52"/>
<text text-anchor="middle" x="288.09" y="-145.9" font-family="Helvetica,sans-Serif" font-size="10.00" fill="#ffffff">be_task_ca.</text>
<text text-anchor="middle" x="288.09" y="-134.65" font-family="Helvetica,sans-Serif" font-size="10.00" fill="#ffffff">item.</text>
<text text-anchor="middle" x="288.09" y="-123.4" font-family="Helvetica,sans-Serif" font-size="10.00" fill="#ffffff">api</text>
</g>
<!-- be_task_ca_common&#45;&gt;be_task_ca_item_api -->
<g id="edge1" class="edge">
<title>be_task_ca_common&#45;&gt;be_task_ca_item_api</title><style>.edge>path:hover{stroke-width:8}</style>
<path fill="none" stroke="black" d="M127.58,-306.92C122.52,-286.47 118.67,-255.31 134.09,-234.57"/>
</g>
<!-- be_task_ca_database -->
<g id="node4" class="node">
<title>be_task_ca_database</title><style>.edge>path:hover{stroke-width:8}</style>
<ellipse fill="#e90c0c" stroke="black" cx="692.09" cy="-700.83" rx="48.97" ry="21.57"/>
<text text-anchor="middle" x="692.09" y="-702.58" font-family="Helvetica,sans-Serif" font-size="10.00" fill="#ffffff">be_task_ca.</text>
<text text-anchor="middle" x="692.09" y="-691.33" font-family="Helvetica,sans-Serif" font-size="10.00" fill="#ffffff">database</text>
</g>
<!-- be_task_ca_database&#45;&gt;be_task_ca_app -->
<g id="edge2" class="edge">
<title>be_task_ca_database&#45;&gt;be_task_ca_app</title><style>.edge>path:hover{stroke-width:8}</style>
<path fill="none" stroke="black" d="M1057.09,-517.7C1058.93,-434.12 1041.1,-411.66 1057.09,-329.61"/>
</g>
<!-- be_task_ca_database&#45;&gt;be_task_ca_commands -->
<g id="edge3" class="edge">
<title>be_task_ca_database&#45;&gt;be_task_ca_commands</title><style>.edge>path:hover{stroke-width:8}</style>
<path fill="none" stroke="black" d="M787.09,-422.65C774.82,-395.45 799.99,-369.74 824.76,-352.26"/>
<polygon fill="#e90c0c" stroke="black" points="826.53,-355.29 832.9,-346.83 822.64,-349.47 826.53,-355.29"/>
</g>
<!-- be_task_ca_item_model -->
<g id="node8" class="node">
<title>be_task_ca_item_model</title><style>.edge>path:hover{stroke-width:8}</style>
<ellipse fill="#bf2121" stroke="black" cx="653.09" cy="-518.7" rx="48.97" ry="29.52"/>
<text text-anchor="middle" x="653.09" y="-526.07" font-family="Helvetica,sans-Serif" font-size="10.00" fill="#ffffff">be_task_ca.</text>
<text text-anchor="middle" x="653.09" y="-514.82" font-family="Helvetica,sans-Serif" font-size="10.00" fill="#ffffff">item.</text>
<text text-anchor="middle" x="653.09" y="-503.57" font-family="Helvetica,sans-Serif" font-size="10.00" fill="#ffffff">model</text>
</g>
<!-- be_task_ca_database&#45;&gt;be_task_ca_item_model -->
<g id="edge4" class="edge">
<title>be_task_ca_database&#45;&gt;be_task_ca_item_model</title><style>.edge>path:hover{stroke-width:8}</style>
<path fill="none" stroke="black" d="M687.61,-679.16C681.3,-650.02 669.67,-596.27 661.66,-559.29"/>
<polygon fill="#e90c0c" stroke="black" points="665.16,-558.91 659.62,-549.88 658.32,-560.39 665.16,-558.91"/>
</g>
<!-- be_task_ca_user_api -->
<g id="node13" class="node">
<title>be_task_ca_user_api</title><style>.edge>path:hover{stroke-width:8}</style>
<ellipse fill="#822b2b" stroke="black" cx="518.09" cy="-138.52" rx="48.97" ry="29.52"/>
<text text-anchor="middle" x="518.09" y="-145.9" font-family="Helvetica,sans-Serif" font-size="10.00" fill="#ffffff">be_task_ca.</text>
<text text-anchor="middle" x="518.09" y="-134.65" font-family="Helvetica,sans-Serif" font-size="10.00" fill="#ffffff">user.</text>
<text text-anchor="middle" x="518.09" y="-123.4" font-family="Helvetica,sans-Serif" font-size="10.00" fill="#ffffff">api</text>
</g>
<!-- be_task_ca_database&#45;&gt;be_task_ca_user_api -->
<g id="edge5" class="edge">
<title>be_task_ca_database&#45;&gt;be_task_ca_user_api</title><style>.edge>path:hover{stroke-width:8}</style>
<path fill="none" stroke="black" d="M728.94,-686.12C824.89,-649.9 1073.93,-552.15 1057.09,-519.7"/>
<path fill="none" stroke="black" d="M787.09,-422.65C764.24,-372 798.43,-345.64 768.09,-299.09 721.11,-227.01 628.94,-181.04 570.6,-157.81"/>
<polygon fill="#e90c0c" stroke="black" points="572.11,-154.64 561.53,-154.28 569.58,-161.17 572.11,-154.64"/>
<path fill="none" stroke="black" d="M1057.09,-517.7C1059.63,-402.54 900.01,-519.85 806.09,-453.17 793.67,-444.36 793.74,-438.35 787.09,-424.65"/>
</g>
<!-- be_task_ca_database_models -->
<g id="node5" class="node">
<title>be_task_ca_database_models</title><style>.edge>path:hover{stroke-width:8}</style>
<ellipse fill="#9d4343" stroke="black" cx="1134.09" cy="-613.74" rx="48.97" ry="29.52"/>
<text text-anchor="middle" x="1134.09" y="-621.11" font-family="Helvetica,sans-Serif" font-size="10.00" fill="#ffffff">be_task_ca.</text>
<text text-anchor="middle" x="1134.09" y="-609.86" font-family="Helvetica,sans-Serif" font-size="10.00" fill="#ffffff">database.</text>
<text text-anchor="middle" x="1134.09" y="-598.61" font-family="Helvetica,sans-Serif" font-size="10.00" fill="#ffffff">models</text>
</g>
<!-- be_task_ca_item -->
<g id="node6" class="node">
<title>be_task_ca_item</title><style>.edge>path:hover{stroke-width:8}</style>
<ellipse fill="#db2f2f" stroke="black" cx="864.09" cy="-423.65" rx="48.97" ry="21.57"/>
<text text-anchor="middle" x="864.09" y="-425.4" font-family="Helvetica,sans-Serif" font-size="10.00" fill="#ffffff">be_task_ca.</text>
<text text-anchor="middle" x="864.09" y="-414.15" font-family="Helvetica,sans-Serif" font-size="10.00" fill="#ffffff">item</text>
</g>
<!-- be_task_ca_item&#45;&gt;be_task_ca_app -->
<g id="edge6" class="edge">
<title>be_task_ca_item&#45;&gt;be_task_ca_app</title><style>.edge>path:hover{stroke-width:8}</style>
<path fill="none" stroke="black" d="M1019.09,-327.61C1016.22,-283.03 1081.77,-271.8 1057.09,-234.57"/>
<path fill="none" stroke="black" d="M1057.09,-232.57C1039.84,-206.53 501.59,-99.52 518.09,-73"/>
</g>
<!-- be_task_ca_item&#45;&gt;be_task_ca_commands -->
<g id="edge7" class="edge">
<title>be_task_ca_item&#45;&gt;be_task_ca_commands</title><style>.edge>path:hover{stroke-width:8}</style>
<path fill="none" stroke="black" d="M864.09,-402C864.09,-390.16 864.09,-375.04 864.09,-361.68"/>
<polygon fill="#db2f2f" stroke="black" points="867.59,-362.04 864.09,-352.04 860.59,-362.04 867.59,-362.04"/>
</g>
<!-- be_task_ca_user_usecases -->
<g id="node16" class="node">
<title>be_task_ca_user_usecases</title><style>.edge>path:hover{stroke-width:8}</style>
<ellipse fill="#822b2b" stroke="black" cx="557.09" cy="-233.57" rx="48.97" ry="29.52"/>
<text text-anchor="middle" x="557.09" y="-240.94" font-family="Helvetica,sans-Serif" font-size="10.00" fill="#ffffff">be_task_ca.</text>
<text text-anchor="middle" x="557.09" y="-229.69" font-family="Helvetica,sans-Serif" font-size="10.00" fill="#ffffff">user.</text>
<text text-anchor="middle" x="557.09" y="-218.44" font-family="Helvetica,sans-Serif" font-size="10.00" fill="#ffffff">usecases</text>
</g>
<!-- be_task_ca_item&#45;&gt;be_task_ca_user_usecases -->
<g id="edge8" class="edge">
<title>be_task_ca_item&#45;&gt;be_task_ca_user_usecases</title><style>.edge>path:hover{stroke-width:8}</style>
<path fill="none" stroke="black" d="M896.44,-407.02C942.14,-384.42 1020,-343.78 1019.09,-329.61"/>
<path fill="none" stroke="black" d="M1019.09,-327.61C1013.89,-246.95 741.51,-235.37 617.47,-234.29"/>
<polygon fill="#db2f2f" stroke="black" points="617.84,-230.79 607.81,-234.23 617.79,-237.79 617.84,-230.79"/>
</g>
<!-- be_task_ca_item_api&#45;&gt;be_task_ca_app -->
<g id="edge9" class="edge">
<title>be_task_ca_item_api&#45;&gt;be_task_ca_app</title><style>.edge>path:hover{stroke-width:8}</style>
<path fill="none" stroke="black" d="M336.05,-131.6C397.62,-122.81 498.84,-103.94 518.09,-73"/>
</g>
<!-- be_task_ca_item_model&#45;&gt;be_task_ca_commands -->
<g id="edge10" class="edge">
<title>be_task_ca_item_model&#45;&gt;be_task_ca_commands</title><style>.edge>path:hover{stroke-width:8}</style>
<path fill="none" stroke="black" d="M675.29,-492.22C698.49,-466.25 736.53,-425.45 773.09,-394.13 790.21,-379.46 810.59,-364.79 827.71,-353.15"/>
<polygon fill="#bf2121" stroke="black" points="829.24,-356.34 835.59,-347.86 825.34,-350.52 829.24,-356.34"/>
</g>
<!-- be_task_ca_item_repository -->
<g id="node9" class="node">
<title>be_task_ca_item_repository</title><style>.edge>path:hover{stroke-width:8}</style>
<ellipse fill="#b42d2d" stroke="black" cx="576.09" cy="-423.65" rx="48.97" ry="29.52"/>
<text text-anchor="middle" x="576.09" y="-431.03" font-family="Helvetica,sans-Serif" font-size="10.00" fill="#ffffff">be_task_ca.</text>
<text text-anchor="middle" x="576.09" y="-419.78" font-family="Helvetica,sans-Serif" font-size="10.00" fill="#ffffff">item.</text>
<text text-anchor="middle" x="576.09" y="-408.53" font-family="Helvetica,sans-Serif" font-size="10.00" fill="#ffffff">repository</text>
</g>
<!-- be_task_ca_item_model&#45;&gt;be_task_ca_item_repository -->
<g id="edge11" class="edge">
<title>be_task_ca_item_model&#45;&gt;be_task_ca_item_repository</title><style>.edge>path:hover{stroke-width:8}</style>
<path fill="none" stroke="black" d="M631.64,-491.78C623.3,-481.7 613.61,-470 604.69,-459.21"/>
<polygon fill="#bf2121" stroke="black" points="607.46,-457.07 598.39,-451.6 602.07,-461.53 607.46,-457.07"/>
</g>
<!-- be_task_ca_item_model&#45;&gt;be_task_ca_user_usecases -->
<g id="edge12" class="edge">
<title>be_task_ca_item_model&#45;&gt;be_task_ca_user_usecases</title><style>.edge>path:hover{stroke-width:8}</style>
<path fill="none" stroke="black" d="M651.77,-488.72C651.26,-470.33 651.18,-446.05 653.09,-424.65"/>
</g>
<!-- be_task_ca_item_usecases -->
<g id="node11" class="node">
<title>be_task_ca_item_usecases</title><style>.edge>path:hover{stroke-width:8}</style>
<ellipse fill="#993333" stroke="black" cx="211.09" cy="-233.57" rx="48.97" ry="29.52"/>
<text text-anchor="middle" x="211.09" y="-240.94" font-family="Helvetica,sans-Serif" font-size="10.00" fill="#ffffff">be_task_ca.</text>
<text text-anchor="middle" x="211.09" y="-229.69" font-family="Helvetica,sans-Serif" font-size="10.00" fill="#ffffff">item.</text>
<text text-anchor="middle" x="211.09" y="-218.44" font-family="Helvetica,sans-Serif" font-size="10.00" fill="#ffffff">usecases</text>
</g>
<!-- be_task_ca_item_repository&#45;&gt;be_task_ca_item_usecases -->
<g id="edge13" class="edge">
<title>be_task_ca_item_repository&#45;&gt;be_task_ca_item_usecases</title><style>.edge>path:hover{stroke-width:8}</style>
<path fill="none" stroke="black" d="M533.82,-408.38C502.05,-396.84 458.01,-379.11 422.09,-358.13 385.15,-336.56 382.48,-321.56 346.09,-299.09 319.28,-282.53 287.57,-267.18 261.62,-255.61"/>
<polygon fill="#b42d2d" stroke="black" points="263.2,-252.48 252.64,-251.66 260.38,-258.89 263.2,-252.48"/>
</g>
<!-- be_task_ca_item_repository&#45;&gt;be_task_ca_user_usecases -->
<g id="edge14" class="edge">
<title>be_task_ca_item_repository&#45;&gt;be_task_ca_user_usecases</title><style>.edge>path:hover{stroke-width:8}</style>
<path fill="none" stroke="black" d="M603.75,-399.27C621.27,-381.5 639.51,-355.73 633.09,-329.61"/>
<path fill="none" stroke="black" d="M633.09,-327.61C627.14,-303.41 610.19,-281.54 593.81,-265.09"/>
<polygon fill="#b42d2d" stroke="black" points="596.59,-262.91 586.96,-258.51 591.75,-267.96 596.59,-262.91"/>
</g>
<!-- be_task_ca_item_schema -->
<g id="node10" class="node">
<title>be_task_ca_item_schema</title><style>.edge>path:hover{stroke-width:8}</style>
<ellipse fill="#cc3333" stroke="black" cx="288.09" cy="-328.61" rx="48.97" ry="29.52"/>
<text text-anchor="middle" x="288.09" y="-335.98" font-family="Helvetica,sans-Serif" font-size="10.00" fill="#ffffff">be_task_ca.</text>
<text text-anchor="middle" x="288.09" y="-324.73" font-family="Helvetica,sans-Serif" font-size="10.00" fill="#ffffff">item.</text>
<text text-anchor="middle" x="288.09" y="-313.48" font-family="Helvetica,sans-Serif" font-size="10.00" fill="#ffffff">schema</text>
</g>
<!-- be_task_ca_item_schema&#45;&gt;be_task_ca_item_api -->
<g id="edge15" class="edge">
<title>be_task_ca_item_schema&#45;&gt;be_task_ca_item_api</title><style>.edge>path:hover{stroke-width:8}</style>
<path fill="none" stroke="black" d="M288.09,-298.63C288.09,-266.88 288.09,-215.71 288.09,-180"/>
<polygon fill="#cc3333" stroke="black" points="291.59,-180.04 288.09,-170.04 284.59,-180.04 291.59,-180.04"/>
</g>
<!-- be_task_ca_item_schema&#45;&gt;be_task_ca_item_usecases -->
<g id="edge16" class="edge">
<title>be_task_ca_item_schema&#45;&gt;be_task_ca_item_usecases</title><style>.edge>path:hover{stroke-width:8}</style>
<path fill="none" stroke="black" d="M266.64,-301.69C258.3,-291.61 248.61,-279.91 239.69,-269.13"/>
<polygon fill="#cc3333" stroke="black" points="242.46,-266.98 233.39,-261.51 237.07,-271.45 242.46,-266.98"/>
</g>
<!-- be_task_ca_item_usecases&#45;&gt;be_task_ca_item_api -->
<g id="edge17" class="edge">
<title>be_task_ca_item_usecases&#45;&gt;be_task_ca_item_api</title><style>.edge>path:hover{stroke-width:8}</style>
<path fill="none" stroke="black" d="M232.54,-206.65C240.88,-196.57 250.56,-184.87 259.48,-174.08"/>
<polygon fill="#993333" stroke="black" points="262.11,-176.4 265.79,-166.47 256.72,-171.94 262.11,-176.4"/>
</g>
<!-- be_task_ca_user -->
<g id="node12" class="node">
<title>be_task_ca_user</title><style>.edge>path:hover{stroke-width:8}</style>
<ellipse fill="#db2f2f" stroke="black" cx="980.09" cy="-423.65" rx="48.97" ry="21.57"/>
<text text-anchor="middle" x="980.09" y="-425.4" font-family="Helvetica,sans-Serif" font-size="10.00" fill="#ffffff">be_task_ca.</text>
<text text-anchor="middle" x="980.09" y="-414.15" font-family="Helvetica,sans-Serif" font-size="10.00" fill="#ffffff">user</text>
</g>
<!-- be_task_ca_user&#45;&gt;be_task_ca_app -->
<g id="edge18" class="edge">
<title>be_task_ca_user&#45;&gt;be_task_ca_app</title><style>.edge>path:hover{stroke-width:8}</style>
<path fill="none" stroke="black" d="M1004.47,-404.88C1024.65,-388.18 1050.95,-361.1 1057.09,-329.61"/>
<path fill="none" stroke="black" d="M1057.09,-327.61C1065,-287.02 1078.72,-269.81 1057.09,-234.57"/>
</g>
<!-- be_task_ca_user&#45;&gt;be_task_ca_commands -->
<g id="edge19" class="edge">
<title>be_task_ca_user&#45;&gt;be_task_ca_commands</title><style>.edge>path:hover{stroke-width:8}</style>
<path fill="none" stroke="black" d="M957.17,-404.27C939.61,-390.19 915.19,-370.6 895.76,-355.02"/>
<polygon fill="#db2f2f" stroke="black" points="898.13,-352.43 888.14,-348.9 893.75,-357.89 898.13,-352.43"/>
</g>
<!-- be_task_ca_user_api&#45;&gt;be_task_ca_app -->
<g id="edge20" class="edge">
<title>be_task_ca_user_api&#45;&gt;be_task_ca_app</title><style>.edge>path:hover{stroke-width:8}</style>
<path fill="none" stroke="black" d="M511.77,-109.03C510.65,-97.09 511.52,-83.56 518.09,-73"/>
</g>
<!-- be_task_ca_user_repository -->
<g id="node14" class="node">
<title>be_task_ca_user_repository</title><style>.edge>path:hover{stroke-width:8}</style>
<ellipse fill="#b03a3a" stroke="black" cx="710.09" cy="-328.61" rx="48.97" ry="29.52"/>
<text text-anchor="middle" x="710.09" y="-335.98" font-family="Helvetica,sans-Serif" font-size="10.00" fill="#ffffff">be_task_ca.</text>
<text text-anchor="middle" x="710.09" y="-324.73" font-family="Helvetica,sans-Serif" font-size="10.00" fill="#ffffff">user.</text>
<text text-anchor="middle" x="710.09" y="-313.48" font-family="Helvetica,sans-Serif" font-size="10.00" fill="#ffffff">repository</text>
</g>
<!-- be_task_ca_user_repository&#45;&gt;be_task_ca_user_usecases -->
<g id="edge21" class="edge">
<title>be_task_ca_user_repository&#45;&gt;be_task_ca_user_usecases</title><style>.edge>path:hover{stroke-width:8}</style>
<path fill="none" stroke="black" d="M676.13,-306.96C653.85,-293.41 624.5,-275.56 600.52,-260.98"/>
<polygon fill="#b03a3a" stroke="black" points="602.6,-258.15 592.24,-255.94 598.97,-264.13 602.6,-258.15"/>
</g>
<!-- be_task_ca_user_schema -->
<g id="node15" class="node">
<title>be_task_ca_user_schema</title><style>.edge>path:hover{stroke-width:8}</style>
<ellipse fill="#cc3333" stroke="black" cx="480.09" cy="-328.61" rx="48.97" ry="29.52"/>
<text text-anchor="middle" x="480.09" y="-335.98" font-family="Helvetica,sans-Serif" font-size="10.00" fill="#ffffff">be_task_ca.</text>
<text text-anchor="middle" x="480.09" y="-324.73" font-family="Helvetica,sans-Serif" font-size="10.00" fill="#ffffff">user.</text>
<text text-anchor="middle" x="480.09" y="-313.48" font-family="Helvetica,sans-Serif" font-size="10.00" fill="#ffffff">schema</text>
</g>
<!-- be_task_ca_user_schema&#45;&gt;be_task_ca_user_api -->
<g id="edge22" class="edge">
<title>be_task_ca_user_schema&#45;&gt;be_task_ca_user_api</title><style>.edge>path:hover{stroke-width:8}</style>
<path fill="none" stroke="black" d="M478.27,-298.99C477.54,-280.53 477.41,-256.04 480.09,-234.57"/>
</g>
<!-- be_task_ca_user_schema&#45;&gt;be_task_ca_user_usecases -->
<g id="edge23" class="edge">
<title>be_task_ca_user_schema&#45;&gt;be_task_ca_user_usecases</title><style>.edge>path:hover{stroke-width:8}</style>
<path fill="none" stroke="black" d="M501.54,-301.69C509.88,-291.61 519.56,-279.91 528.48,-269.13"/>
<polygon fill="#cc3333" stroke="black" points="531.11,-271.45 534.79,-261.51 525.72,-266.98 531.11,-271.45"/>
</g>
<!-- be_task_ca_user_usecases&#45;&gt;be_task_ca_user_api -->
<g id="edge24" class="edge">
<title>be_task_ca_user_usecases&#45;&gt;be_task_ca_user_api</title><style>.edge>path:hover{stroke-width:8}</style>
<path fill="none" stroke="black" d="M545.39,-204.65C541.88,-196.28 537.96,-186.94 534.22,-178.01"/>
<polygon fill="#822b2b" stroke="black" points="537.46,-176.68 530.37,-168.81 531,-179.39 537.46,-176.68"/>
</g>
<!-- fastapi -->
<g id="node17" class="node">
<title>fastapi</title><style>.edge>path:hover{stroke-width:8}</style>
<polygon fill="#85f316" stroke="black" points="308.09,-536.7 305.09,-540.7 284.09,-540.7 281.09,-536.7 254.09,-536.7 254.09,-500.7 308.09,-500.7 308.09,-536.7"/>
<text text-anchor="middle" x="281.09" y="-514.82" font-family="Helvetica,sans-Serif" font-size="10.00" fill="#000000">fastapi</text>
</g>
<!-- fastapi&#45;&gt;be_task_ca_app -->
<g id="edge25" class="edge">
<title>fastapi&#45;&gt;be_task_ca_app</title><style>.edge>path:hover{stroke-width:8}</style>
<path fill="none" stroke="black" d="M518.09,-72C522.12,-64.65 523.28,-55.82 523.1,-47.5"/>
<polygon fill="#85f316" stroke="black" points="526.61,-47.44 522.26,-37.78 519.64,-48.05 526.61,-47.44"/>
<path fill="none" stroke="black" d="M253.6,-506.21C206.84,-484.96 113.26,-434.59 76.09,-358.13 44.95,-294.08 77.22,-260.92 120.09,-204.04 158.98,-152.45 171.05,-135.26 230.09,-109 289.02,-82.79 487.09,-129.56 518.09,-73"/>
</g>
<!-- fastapi&#45;&gt;be_task_ca_common -->
<g id="edge26" class="edge">
<title>fastapi&#45;&gt;be_task_ca_common</title><style>.edge>path:hover{stroke-width:8}</style>
<path fill="none" stroke="black" d="M265.89,-500.5C250.56,-482.54 226.97,-453.06 211.09,-424.65"/>
<path fill="none" stroke="black" d="M211.09,-422.65C197.55,-398.43 177.43,-374.39 161.15,-356.81"/>
<polygon fill="#85f316" stroke="black" points="163.97,-354.69 154.55,-349.83 158.88,-359.5 163.97,-354.69"/>
</g>
<!-- fastapi&#45;&gt;be_task_ca_item_api -->
<g id="edge27" class="edge">
<title>fastapi&#45;&gt;be_task_ca_item_api</title><style>.edge>path:hover{stroke-width:8}</style>
<path fill="none" stroke="black" d="M211.09,-422.65C190.91,-386.56 219,-370.2 211.09,-329.61"/>
<path fill="none" stroke="black" d="M211.09,-327.61C200.82,-274.92 102.07,-277.65 134.09,-234.57"/>
</g>
<!-- fastapi&#45;&gt;be_task_ca_item_usecases -->
<g id="edge28" class="edge">
<title>fastapi&#45;&gt;be_task_ca_item_usecases</title><style>.edge>path:hover{stroke-width:8}</style>
<path fill="none" stroke="black" d="M211.09,-327.61C207.76,-310.51 207.23,-291.31 207.74,-274.81"/>
<polygon fill="#85f316" stroke="black" points="211.23,-275 208.2,-264.85 204.24,-274.68 211.23,-275"/>
</g>
<!-- fastapi&#45;&gt;be_task_ca_user_api -->
<g id="edge29" class="edge">
<title>fastapi&#45;&gt;be_task_ca_user_api</title><style>.edge>path:hover{stroke-width:8}</style>
<path fill="none" stroke="black" d="M290.99,-500.34C312.86,-462.52 367.65,-370.32 422.09,-299.09 445.5,-268.45 475.32,-272.83 480.09,-234.57"/>
<path fill="none" stroke="black" d="M480.09,-232.57C482.52,-213.54 489.87,-193.7 497.46,-177.25"/>
<polygon fill="#85f316" stroke="black" points="500.57,-178.86 501.78,-168.33 494.27,-175.81 500.57,-178.86"/>
</g>
<!-- fastapi&#45;&gt;be_task_ca_user_usecases -->
<g id="edge30" class="edge">
<title>fastapi&#45;&gt;be_task_ca_user_usecases</title><style>.edge>path:hover{stroke-width:8}</style>
<path fill="none" stroke="black" d="M308.2,-509.73C362.35,-492.26 483.39,-445.02 538.09,-358.13 553.68,-333.36 558.12,-300.4 558.83,-274.75"/>
<polygon fill="#85f316" stroke="black" points="562.32,-275.08 558.9,-265.05 555.32,-275.02 562.32,-275.08"/>
</g>
<!-- pydantic -->
<g id="node18" class="node">
<title>pydantic</title><style>.edge>path:hover{stroke-width:8}</style>
<polygon fill="#47c2c2" stroke="black" points="450.09,-631.74 447.09,-635.74 426.09,-635.74 423.09,-631.74 396.09,-631.74 396.09,-595.74 450.09,-595.74 450.09,-631.74"/>
<text text-anchor="middle" x="423.09" y="-609.86" font-family="Helvetica,sans-Serif" font-size="10.00" fill="#000000">pydantic</text>
</g>
<!-- pydantic&#45;&gt;be_task_ca_item_schema -->
<g id="edge31" class="edge">
<title>pydantic&#45;&gt;be_task_ca_item_schema</title><style>.edge>path:hover{stroke-width:8}</style>
<path fill="none" stroke="black" d="M423.09,-517.7C412.44,-453.26 360.93,-394.85 324.72,-360.78"/>
<polygon fill="#47c2c2" stroke="black" points="327.17,-358.28 317.44,-354.09 322.43,-363.43 327.17,-358.28"/>
<path fill="none" stroke="black" d="M423.97,-595.55C424.72,-576.85 425.36,-546.09 423.09,-519.7"/>
</g>
<!-- pydantic&#45;&gt;be_task_ca_user_schema -->
<g id="edge32" class="edge">
<title>pydantic&#45;&gt;be_task_ca_user_schema</title><style>.edge>path:hover{stroke-width:8}</style>
<path fill="none" stroke="black" d="M423.09,-517.7C412.77,-464.1 437.6,-404.05 457.68,-366.53"/>
<polygon fill="#47c2c2" stroke="black" points="460.68,-368.34 462.46,-357.9 454.56,-364.96 460.68,-368.34"/>
</g>
<!-- sqlalchemy -->
<g id="node19" class="node">
<title>sqlalchemy</title><style>.edge>path:hover{stroke-width:8}</style>
<polygon fill="#7f06f9" stroke="black" points="724.84,-831.39 721.84,-835.39 700.84,-835.39 697.84,-831.39 659.34,-831.39 659.34,-795.39 724.84,-795.39 724.84,-831.39"/>
<text text-anchor="middle" x="692.09" y="-809.52" font-family="Helvetica,sans-Serif" font-size="10.00" fill="#ffffff">sqlalchemy</text>
</g>
<!-- sqlalchemy&#45;&gt;be_task_ca_database -->
<g id="edge33" class="edge">
<title>sqlalchemy&#45;&gt;be_task_ca_database</title><style>.edge>path:hover{stroke-width:8}</style>
<path fill="none" stroke="black" d="M692.09,-758.39C692.09,-750.57 692.09,-742.13 692.09,-734.23"/>
<polygon fill="#7f06f9" stroke="black" points="695.59,-734.29 692.09,-724.29 688.59,-734.29 695.59,-734.29"/>
</g>
<!-- sqlalchemy&#45;&gt;be_task_ca_database_models -->
<g id="edge34" class="edge">
<title>sqlalchemy&#45;&gt;be_task_ca_database_models</title><style>.edge>path:hover{stroke-width:8}</style>
<path fill="none" stroke="black" d="M692.09,-758.39C692.09,-714.38 1029.9,-658.77 1071.09,-643.26 1075.83,-641.48 1080.72,-639.5 1085.58,-637.46"/>
<polygon fill="#7f06f9" stroke="black" points="1086.94,-640.68 1094.72,-633.49 1084.15,-634.26 1086.94,-640.68"/>
</g>
<!-- sqlalchemy&#45;&gt;be_task_ca_item_api -->
<g id="edge35" class="edge">
<title>sqlalchemy&#45;&gt;be_task_ca_item_api</title><style>.edge>path:hover{stroke-width:8}</style>
<path fill="none" stroke="black" d="M692.09,-758.39C697.43,-728.53 657.48,-741.71 634.09,-722.39 624.49,-714.47 625.12,-709.19 615.09,-701.83"/>
<path fill="none" stroke="black" d="M134.09,-232.57C143.17,-220.34 141.58,-214.02 153.09,-204.04 176.72,-183.55 207.98,-168.06 234.48,-157.4"/>
<polygon fill="#7f06f9" stroke="black" points="235.66,-160.7 243.71,-153.82 233.12,-154.17 235.66,-160.7"/>
<path fill="none" stroke="black" d="M690.56,-795.07C690.02,-784.65 689.98,-771.17 692.09,-759.39"/>
<path fill="none" stroke="black" d="M57.09,-517.7C-10.16,-446.96 -18.45,-380.03 36.09,-299.09 65.23,-255.84 102.98,-276.42 134.09,-234.57"/>
<path fill="none" stroke="black" d="M615.09,-699.83C530.94,-638.03 486.81,-674.19 387.09,-643.26 237.51,-596.87 159.02,-638.59 57.09,-519.7"/>
</g>
<!-- sqlalchemy&#45;&gt;be_task_ca_item_model -->
<g id="edge36" class="edge">
<title>sqlalchemy&#45;&gt;be_task_ca_item_model</title><style>.edge>path:hover{stroke-width:8}</style>
<path fill="none" stroke="black" d="M615.09,-612.74C615.04,-593.23 622.28,-573.02 630.45,-556.43"/>
<polygon fill="#7f06f9" stroke="black" points="633.35,-558.44 634.9,-547.96 627.15,-555.19 633.35,-558.44"/>
</g>
<!-- sqlalchemy&#45;&gt;be_task_ca_item_repository -->
<g id="edge37" class="edge">
<title>sqlalchemy&#45;&gt;be_task_ca_item_repository</title><style>.edge>path:hover{stroke-width:8}</style>
<path fill="none" stroke="black" d="M576.09,-517.7C572.72,-500.61 572.19,-481.41 572.7,-464.91"/>
<polygon fill="#7f06f9" stroke="black" points="576.2,-465.1 573.16,-454.95 569.2,-464.77 576.2,-465.1"/>
<path fill="none" stroke="black" d="M615.09,-699.83C585.08,-676.81 615.19,-652.56 615.09,-614.74"/>
</g>
<!-- sqlalchemy&#45;&gt;be_task_ca_item_usecases -->
<g id="edge38" class="edge">
<title>sqlalchemy&#45;&gt;be_task_ca_item_usecases</title><style>.edge>path:hover{stroke-width:8}</style>
<path fill="none" stroke="black" d="M57.09,-517.7C-4.89,-442.39 20.55,-379.26 76.09,-299.09 77.49,-297.07 124.49,-274.85 162.64,-257.04"/>
<polygon fill="#7f06f9" stroke="black" points="163.66,-260.43 171.25,-253.03 160.7,-254.08 163.66,-260.43"/>
</g>
<!-- sqlalchemy&#45;&gt;be_task_ca_user_api -->
<g id="edge39" class="edge">
<title>sqlalchemy&#45;&gt;be_task_ca_user_api</title><style>.edge>path:hover{stroke-width:8}</style>
<path fill="none" stroke="black" d="M576.09,-517.7C568.63,-479.86 531.89,-489.18 518.09,-453.17 508.69,-428.67 511.51,-419.53 518.09,-394.13 522.68,-376.41 533.5,-375.85 538.09,-358.13 544.67,-332.73 548.61,-323.13 538.09,-299.09 522.62,-263.76 475.2,-272.81 480.09,-234.57"/>
<path fill="none" stroke="black" d="M615.09,-612.74C614.97,-567.9 583.53,-563.91 576.09,-519.7"/>
</g>
<!-- sqlalchemy&#45;&gt;be_task_ca_user_repository -->
<g id="edge40" class="edge">
<title>sqlalchemy&#45;&gt;be_task_ca_user_repository</title><style>.edge>path:hover{stroke-width:8}</style>
<path fill="none" stroke="black" d="M615.09,-699.83C583.45,-675.56 699.98,-586.52 711.09,-548.22 728.6,-487.82 723.03,-414.03 716.91,-369.48"/>
<polygon fill="#7f06f9" stroke="black" points="720.4,-369.16 715.49,-359.77 713.48,-370.17 720.4,-369.16"/>
</g>
<!-- sqlalchemy&#45;&gt;be_task_ca_user_usecases -->
<g id="edge41" class="edge">
<title>sqlalchemy&#45;&gt;be_task_ca_user_usecases</title><style>.edge>path:hover{stroke-width:8}</style>
<path fill="none" stroke="black" d="M576.09,-517.7C565.7,-465.03 648.33,-478.12 653.09,-424.65"/>
<path fill="none" stroke="black" d="M653.09,-422.65C656.84,-380.52 643.19,-370.68 633.09,-329.61"/>
</g>
</g>
</svg>
